<svg width="196" height="196" viewBox="0 0 196 196" fill="none" xmlns="http://www.w3.org/2000/svg">
<g clip-path="url(#clip0_45_117)">
<path d="M196 98C196.015 110.589 193.598 123.063 188.882 134.736C188.87 134.762 188.862 134.785 188.85 134.811V134.814C185.68 142.63 181.51 150.002 176.444 156.745C175.466 158.05 174.458 159.327 173.42 160.578C173.04 161.036 172.654 161.491 172.268 161.941C170.282 164.246 168.193 166.454 166 168.566C165.49 169.059 164.974 169.546 164.452 170.027C164.33 170.14 164.208 170.25 164.086 170.363C161.532 172.697 158.856 174.894 156.069 176.945C154.199 178.328 152.28 179.642 150.311 180.885C149.879 181.161 149.444 181.431 149.006 181.697C148.247 182.161 147.48 182.614 146.707 183.057C145.698 183.637 144.677 184.198 143.643 184.742C143.225 184.965 142.805 185.179 142.384 185.394C141.77 185.71 141.152 186.014 140.529 186.313C140.421 186.365 140.314 186.417 140.207 186.467C139.801 186.664 139.389 186.855 138.977 187.047C133.615 189.52 128.039 191.499 122.317 192.959C122.286 192.967 122.257 192.973 122.225 192.982C121.851 193.077 121.474 193.17 121.097 193.26C120.816 193.33 120.531 193.396 120.247 193.46C120.212 193.472 120.176 193.48 120.14 193.486C119.557 193.622 118.974 193.753 118.386 193.872C118.055 193.941 117.725 194.011 117.394 194.078C117.194 194.121 116.991 194.159 116.791 194.197C116.539 194.246 116.29 194.292 116.037 194.342C115.898 194.371 115.759 194.394 115.617 194.417C115.298 194.475 114.979 194.533 114.663 194.588C114.124 194.681 113.579 194.771 113.036 194.852C112.642 194.913 112.251 194.971 111.856 195.026C111.392 195.092 110.929 195.153 110.462 195.211C110.334 195.232 110.207 195.246 110.079 195.261C109.914 195.281 109.749 195.301 109.583 195.322C109.25 195.362 108.916 195.4 108.58 195.435C108.406 195.455 108.235 195.472 108.061 195.49C107.731 195.524 107.4 195.556 107.069 195.585C106.643 195.626 106.217 195.661 105.788 195.696C105.266 195.736 104.747 195.774 104.222 195.806C103.886 195.826 103.55 195.846 103.21 195.864C102.346 195.91 101.482 195.942 100.612 195.965C100.18 195.977 99.7456 195.985 99.3107 195.991H99.302C98.8699 195.997 98.435 196 98.0001 196C93.5927 196.002 89.1902 195.707 84.8223 195.119C81.6185 194.689 78.4658 194.108 75.3644 193.373C75.2398 193.344 75.1151 193.315 74.9933 193.283C74.6802 193.211 74.3699 193.132 74.0597 193.054C73.7843 192.985 73.5117 192.912 73.2363 192.84C66.1375 190.992 59.2705 188.348 52.7665 184.956C52.7346 184.939 52.6998 184.921 52.6679 184.904C52.4794 184.805 52.2939 184.71 52.1083 184.608C51.6995 184.394 51.2926 184.175 50.8876 183.953C48.5826 182.686 46.3365 181.331 44.1494 179.888C43.5869 179.52 43.0302 179.146 42.4794 178.766C42.3025 178.644 42.1285 178.522 41.9546 178.401C41.7719 178.273 41.5892 178.145 41.4095 178.018C40.9311 177.679 40.4556 177.336 39.983 176.989C38.0259 175.55 36.1268 174.042 34.2856 172.463C27.7598 166.874 21.9932 160.455 17.1327 153.37C15.4366 150.9 13.8535 148.35 12.3835 145.721C4.23705 131.137 -0.026971 114.705 0.000128367 98C0.000128367 43.8767 43.8769 0 98.0001 0C152.123 0 196 43.8767 196 98Z" fill="#FF91AF"/>
<path opacity="0.2" d="M113.758 193.283C114.071 193.211 114.382 193.132 114.692 193.054C114.967 192.985 115.24 192.912 115.515 192.84C115.53 192.263 115.55 191.628 115.57 190.941C115.741 185.559 116.145 176.896 117.096 166.458C117.148 165.898 117.2 165.335 117.252 164.768C117.591 161.23 117.989 157.51 118.464 153.654C118.479 153.527 118.496 153.402 118.51 153.274C118.896 150.149 119.334 146.939 119.827 143.669C120.172 141.381 120.545 139.068 120.946 136.73C120.975 136.568 121.004 136.403 121.033 136.24C121.149 135.565 121.268 134.892 121.39 134.214C121.729 132.326 122.091 130.427 122.471 128.528C123.808 121.848 125.399 115.127 127.299 108.589C129.228 101.808 131.604 95.1625 134.411 88.6958C136.588 83.6722 139.181 78.8395 142.164 74.248C142.207 74.1813 142.251 74.1176 142.294 74.0509C146.107 68.3071 150.465 63.4332 155.44 59.7887L154.408 58.3796C149.641 61.8734 145.269 66.5221 141.291 72.3257C141.271 72.3547 141.253 72.3808 141.233 72.4098C138.242 76.8457 135.631 81.5266 133.428 86.4024C130.478 92.9242 127.99 99.6452 125.982 106.516C124.08 112.9 122.374 119.817 120.865 127.267C120.334 129.891 119.828 132.579 119.345 135.333C119.264 135.802 119.183 136.272 119.102 136.745C119.102 136.751 119.099 136.759 119.099 136.765C118.974 137.49 118.855 138.215 118.734 138.948C118.432 140.795 118.148 142.628 117.881 144.446C117.47 147.246 117.097 149.999 116.765 152.703C116.655 153.596 116.549 154.482 116.446 155.362C116.301 156.603 116.164 157.827 116.034 159.035C115.852 160.717 115.684 162.363 115.533 163.973L115.489 164.417C115.466 164.672 115.443 164.927 115.42 165.179C114.243 177.876 113.874 188.131 113.758 193.283Z" fill="black"/>
<path opacity="0.2" d="M135.985 184.956C136.017 184.939 136.052 184.921 136.084 184.904C136.681 184.594 137.273 184.278 137.864 183.953C138.058 181.639 138.319 179.096 138.661 176.423C138.734 175.872 138.806 175.313 138.888 174.75C138.928 174.449 138.972 174.144 139.015 173.837C139.357 171.483 139.763 169.053 140.25 166.612C142.231 156.649 145.519 146.467 150.978 140.181C151.271 139.841 151.57 139.517 151.88 139.201C152.649 138.402 153.484 137.669 154.376 137.012L153.344 135.605C152.098 136.527 150.952 137.575 149.923 138.734C149.56 139.137 149.207 139.556 148.862 139.992C143.837 146.316 140.7 155.678 138.746 164.947C138.235 167.365 137.806 169.781 137.441 172.132C137.348 172.747 137.259 173.356 137.174 173.959C136.609 177.942 136.235 181.706 135.985 184.956Z" fill="black"/>
<path opacity="0.2" d="M165.19 59.7482C170.008 59.7482 173.914 55.8424 173.914 51.0243C173.914 46.2062 170.008 42.3004 165.19 42.3004C160.372 42.3004 156.466 46.2062 156.466 51.0243C156.466 55.8424 160.372 59.7482 165.19 59.7482Z" fill="black"/>
<path opacity="0.2" d="M162.381 134.846C167.199 134.846 171.105 130.94 171.105 126.122C171.105 121.304 167.199 117.398 162.381 117.398C157.563 117.398 153.657 121.304 153.657 126.122C153.657 130.94 157.563 134.846 162.381 134.846Z" fill="black"/>
<path opacity="0.2" d="M130.556 65.6778C132.406 76.1149 128.322 85.5655 128.322 85.5655C128.322 85.5655 121.239 78.0942 119.389 67.6571C117.539 57.22 121.623 47.7694 121.623 47.7694C121.623 47.7694 128.706 55.2407 130.556 65.6778Z" fill="black"/>
<path opacity="0.2" d="M159.549 90.4532C149.594 94.0934 139.591 91.7573 139.591 91.7573C139.591 91.7573 145.728 83.5193 155.683 79.8791C165.638 76.2389 175.641 78.575 175.641 78.575C175.641 78.575 169.505 86.813 159.549 90.4532Z" fill="black"/>
<path opacity="0.2" d="M161.238 156.955C154.26 159.506 147.238 157.842 147.238 157.842C147.238 157.842 151.53 152.04 158.508 149.489C165.485 146.937 172.507 148.602 172.507 148.602C172.507 148.602 168.215 154.403 161.238 156.955Z" fill="black"/>
<path d="M127.562 155.487L127.916 155.669C127.881 156.046 127.797 156.278 127.562 155.487Z" fill="#2F2E41"/>
<path d="M128.029 155.608C128.032 155.649 128.038 155.692 128.041 155.733L127.916 155.669C127.919 155.632 127.922 155.591 127.928 155.55C127.957 155.043 127.922 154.443 128.029 155.608Z" fill="#2F2E41"/>
<path d="M90.3697 141.738C116.664 141.738 137.981 120.421 137.981 94.1267C137.981 67.8319 116.664 46.5158 90.3697 46.5158C64.0749 46.5158 42.7588 67.8319 42.7588 94.1267C42.7588 120.421 64.0749 141.738 90.3697 141.738Z" fill="#2F2E41"/>
<path d="M95.333 134.666C111.257 134.666 124.166 121.757 124.166 105.833C124.166 89.909 111.257 77 95.333 77C79.409 77 66.5 89.909 66.5 105.833C66.5 121.757 79.409 134.666 95.333 134.666Z" fill="#D0CDE1"/>
<path d="M160.126 166.226L160.091 166.235L153.385 167.844L139.421 171.196L137.516 171.654L116.281 176.748L114.477 177.183L62.9578 189.546C59.4751 188.214 56.0722 186.681 52.7664 184.956C52.7345 184.939 52.6997 184.921 52.6678 184.904C52.4794 184.805 52.2938 184.71 52.1082 184.608C51.6994 184.394 51.2925 184.175 50.8876 183.953C48.5826 182.686 46.3365 181.331 44.1494 179.888C43.5869 179.52 43.0302 179.146 42.4793 178.766C42.3024 178.644 42.1285 178.522 41.9545 178.401C41.7719 178.273 41.5892 178.145 41.4094 178.018C40.931 177.679 40.4555 177.336 39.9829 176.989C44.9873 167.893 56.9039 161.848 68.8204 158.54C77.8144 156.04 79.7918 147.826 79.6207 140.517C79.5772 138.85 79.4359 137.186 79.1974 135.536C78.8341 132.909 78.2561 130.316 77.4694 127.783L106.304 128.745L109.279 135.6C109.197 136.352 109.171 137.11 109.2 137.867C109.427 143.489 112.897 147.125 117.18 149.47C117.736 149.775 118.308 150.059 118.887 150.323C125.91 153.515 134.176 153.732 134.176 153.732C136.693 153.454 139.236 153.502 141.741 153.875C142.349 153.967 142.941 154.078 143.515 154.208C146.867 154.957 150.033 156.374 152.825 158.374C153.891 159.133 154.9 159.969 155.843 160.877C157.52 162.445 158.962 164.247 160.126 166.226Z" fill="#D0CDE1"/>
<path d="M164.452 170.027C164.33 170.14 164.208 170.25 164.086 170.363C161.532 172.697 158.856 174.894 156.07 176.945C154.199 178.328 152.28 179.642 150.311 180.885C149.879 181.161 149.444 181.431 149.007 181.697C148.247 182.161 147.481 182.614 146.707 183.057C145.698 183.637 144.677 184.198 143.643 184.742C143.225 184.965 142.805 185.179 142.384 185.394C141.77 185.71 141.152 186.014 140.529 186.313C140.421 186.365 140.314 186.417 140.207 186.467L138.98 185.449L153.385 167.844L156.281 164.304C156.281 164.304 157.438 164.304 160.091 166.235C161.557 167.326 162.943 168.522 164.237 169.813C164.307 169.885 164.379 169.955 164.452 170.027Z" fill="#D0CDE1"/>
<path d="M164.249 169.83C164.21 170.012 164.155 170.191 164.086 170.363C161.532 172.697 158.856 174.894 156.07 176.945C153.652 177.817 151.143 178.413 148.592 178.722C148.592 178.722 148.809 179.813 149.007 181.697C148.247 182.161 147.481 182.614 146.707 183.057C145.698 183.637 144.677 184.198 143.643 184.742C143.225 184.965 142.805 185.179 142.384 185.394C141.77 185.71 141.152 186.014 140.529 186.313C140.421 186.365 140.314 186.417 140.207 186.467C139.801 186.664 139.389 186.855 138.978 187.047C133.616 189.52 128.039 191.499 122.318 192.959C122.286 192.967 122.257 192.973 122.225 192.982C121.851 193.077 121.474 193.17 121.097 193.26C120.816 193.33 120.532 193.396 120.247 193.46C120.212 193.472 120.176 193.48 120.14 193.486C119.557 193.623 118.975 193.753 118.386 193.872C118.055 193.941 117.725 194.011 117.394 194.078C117.194 194.121 116.991 194.159 116.791 194.197C116.539 194.246 116.29 194.292 116.037 194.342C115.898 194.371 115.759 194.394 115.617 194.417C115.298 194.475 114.979 194.533 114.663 194.588C114.124 194.681 113.579 194.771 113.037 194.852C112.642 194.913 112.251 194.971 111.856 195.026C111.393 195.092 110.929 195.153 110.462 195.211C110.334 195.232 110.207 195.246 110.079 195.261C109.914 195.281 109.749 195.301 109.583 195.322C109.25 195.362 108.916 195.4 108.58 195.435C108.406 195.455 108.235 195.472 108.061 195.49C107.731 195.525 107.4 195.556 107.07 195.585C106.643 195.626 106.217 195.661 105.788 195.696C105.266 195.736 104.747 195.774 104.222 195.806C103.886 195.826 103.55 195.846 103.21 195.864C102.346 195.91 101.482 195.942 100.613 195.965C100.181 195.977 99.7457 195.986 99.3108 195.991H99.3021C98.87 195.997 98.4351 196 98.0002 196C93.5928 196.002 89.1903 195.707 84.8224 195.119C81.6186 194.689 78.4659 194.108 75.3645 193.373C75.2399 193.344 75.1152 193.315 74.9934 193.283C74.6803 193.211 74.3701 193.133 74.0598 193.054C73.7844 192.985 73.5118 192.912 73.2364 192.84C66.1376 190.992 59.2706 188.348 52.7666 184.956C52.7347 184.939 52.6999 184.921 52.668 184.904C52.4795 184.805 52.294 184.71 52.1084 184.608C68.0232 180.9 93.1727 175.052 114.997 170.042C115.608 169.902 116.216 169.763 116.82 169.624C124.881 167.774 132.431 166.052 138.818 164.611C139.479 164.463 140.127 164.318 140.761 164.176C147.624 162.634 152.953 161.462 155.843 160.877C156.623 160.699 157.41 160.56 158.204 160.462L164.237 169.813L164.249 169.83Z" fill="#2F2E41"/>
<path d="M46.8109 73.8667C54.6434 73.8667 60.9928 67.5172 60.9928 59.6847C60.9928 51.8522 54.6434 45.5028 46.8109 45.5028C38.9784 45.5028 32.6289 51.8522 32.6289 59.6847C32.6289 67.5172 38.9784 73.8667 46.8109 73.8667Z" fill="#2F2E41"/>
<path d="M133.929 69.8147C141.761 69.8147 148.111 63.4652 148.111 55.6327C148.111 47.8003 141.761 41.4508 133.929 41.4508C126.096 41.4508 119.747 47.8003 119.747 55.6327C119.747 63.4652 126.096 69.8147 133.929 69.8147Z" fill="#2F2E41"/>
<path d="M118.733 49.5548C118.734 46.0569 120.027 42.6826 122.364 40.0803C124.701 37.4781 127.918 35.8313 131.396 35.4566C129.415 35.2403 127.411 35.4437 125.515 36.0535C123.618 36.6634 121.871 37.6661 120.388 38.9962C118.904 40.3263 117.718 41.954 116.906 43.7732C116.094 45.5925 115.674 47.5624 115.674 49.5548C115.674 51.5471 116.094 53.5171 116.906 55.3363C117.718 57.1556 118.904 58.7833 120.388 60.1134C121.871 61.4435 123.618 62.4461 125.515 63.056C127.411 63.6658 129.415 63.8692 131.396 63.6529C127.918 63.2782 124.701 61.6315 122.364 59.0292C120.027 56.4269 118.734 53.0526 118.733 49.5548V49.5548Z" fill="#2F2E41"/>
<path d="M30.9644 71.1563C28.5167 68.6575 27.0789 65.3423 26.9271 61.8477C26.7754 58.3532 27.9204 54.9258 30.1423 52.2243C28.5762 53.4559 27.2872 55.0036 26.3593 56.7666C25.4313 58.5296 24.8852 60.4684 24.7566 62.4566C24.628 64.4447 24.9198 66.4377 25.6128 68.3056C26.3059 70.1735 27.3848 71.8744 28.7791 73.2974C30.1735 74.7205 31.852 75.8338 33.7054 76.5649C35.5587 77.2959 37.5453 77.6282 39.5357 77.5402C41.5261 77.4521 43.4756 76.9457 45.2571 76.0539C47.0387 75.1621 48.6124 73.905 49.8757 72.3643C47.1294 74.5306 43.6794 75.6055 40.1886 75.3825C36.6979 75.1595 33.4127 73.6544 30.9644 71.1563V71.1563Z" fill="#2F2E41"/>
<path d="M90.3694 71.8407C73.5855 71.8407 59.9795 79.7776 59.9795 89.5682C59.9795 93.9489 62.7144 97.9526 67.2289 101.046L73.0793 96.8066L71.4883 103.448C72.1484 103.753 72.8225 104.05 73.5256 104.323L82.2654 94.1267V106.653C84.9454 107.083 87.6553 107.297 90.3694 107.296C107.153 107.296 120.759 99.3588 120.759 89.5682C120.759 79.7776 107.153 71.8407 90.3694 71.8407Z" fill="#2F2E41"/>
<path d="M119.747 55.6328C119.747 55.6328 117.544 65.7627 131.308 69.8147L119.747 55.6328Z" fill="#2F2E41"/>
<path d="M59.9796 57.4765C59.9796 57.4765 65.0446 68.8017 49.8496 73.8667L59.9796 57.4765Z" fill="#2F2E41"/>
<path d="M67.4908 122.284C68.7687 121.926 69.1086 119.15 68.25 116.083C67.3915 113.016 65.6595 110.82 64.3817 111.178C63.1038 111.535 62.7639 114.311 63.6225 117.378C64.481 120.445 66.213 122.641 67.4908 122.284Z" fill="#D0CDE1"/>
<path d="M126 112.073C126.196 108.894 125.281 106.251 123.957 106.169C122.632 106.088 121.4 108.599 121.204 111.777C121.008 114.956 121.923 117.599 123.248 117.681C124.572 117.762 125.805 115.252 126 112.073Z" fill="#D0CDE1"/>
</g>
<defs>
<clipPath id="clip0_45_117">
<rect width="196" height="196" rx="5" fill="white"/>
</clipPath>
</defs>
</svg>
