<svg id="wave" style="transform:rotate(0deg); transition: 0.3s" viewBox="0 0 1440 250" version="1.1" xmlns="http://www.w3.org/2000/svg"><defs><linearGradient id="sw-gradient-0" x1="0" x2="0" y1="1" y2="0"><stop stop-color="rgba(255, 145, 175, 1)" offset="0%"></stop><stop stop-color="rgba(255, 145, 175, 1)" offset="100%"></stop></linearGradient></defs><path style="transform:translate(0, 0px); opacity:1" fill="url(#sw-gradient-0)" d="M0,0L40,20.8C80,42,160,83,240,91.7C320,100,400,75,480,62.5C560,50,640,50,720,62.5C800,75,880,100,960,91.7C1040,83,1120,42,1200,45.8C1280,50,1360,100,1440,100C1520,100,1600,50,1680,50C1760,50,1840,100,1920,129.2C2000,158,2080,167,2160,170.8C2240,175,2320,175,2400,170.8C2480,167,2560,158,2640,154.2C2720,150,2800,150,2880,137.5C2960,125,3040,100,3120,104.2C3200,108,3280,142,3360,133.3C3440,125,3520,75,3600,50C3680,25,3760,25,3840,29.2C3920,33,4000,42,4080,41.7C4160,42,4240,33,4320,29.2C4400,25,4480,25,4560,29.2C4640,33,4720,42,4800,45.8C4880,50,4960,50,5040,58.3C5120,67,5200,83,5280,100C5360,117,5440,133,5520,150C5600,167,5680,183,5720,191.7L5760,200L5760,250L5720,250C5680,250,5600,250,5520,250C5440,250,5360,250,5280,250C5200,250,5120,250,5040,250C4960,250,4880,250,4800,250C4720,250,4640,250,4560,250C4480,250,4400,250,4320,250C4240,250,4160,250,4080,250C4000,250,3920,250,3840,250C3760,250,3680,250,3600,250C3520,250,3440,250,3360,250C3280,250,3200,250,3120,250C3040,250,2960,250,2880,250C2800,250,2720,250,2640,250C2560,250,2480,250,2400,250C2320,250,2240,250,2160,250C2080,250,2000,250,1920,250C1840,250,1760,250,1680,250C1600,250,1520,250,1440,250C1360,250,1280,250,1200,250C1120,250,1040,250,960,250C880,250,800,250,720,250C640,250,560,250,480,250C400,250,320,250,240,250C160,250,80,250,40,250L0,250Z"></path></svg>
